<?xml version="1.0" encoding="UTF-8"?>
<svg width="46px" height="46px" viewBox="0 0 46 46" version="1.1" xmlns="http://www.w3.org/2000/svg" xmlns:xlink="http://www.w3.org/1999/xlink">
    <!-- Generator: Sketch 53.1 (72631) - https://sketchapp.com -->
    <title>logo-white</title>
    <desc>Created with Sketch.</desc>
    <defs>
        <linearGradient x1="62.4149539%" y1="98.1575964%" x2="33.5271706%" y2="27.324263%" id="linearGradient-1">
            <stop stop-color="#E0E0E0" offset="0%"></stop>
            <stop stop-color="#FFFFFF" offset="52%"></stop>
            <stop stop-color="#E0E0E0" offset="100%"></stop>
        </linearGradient>
        <linearGradient x1="46.4085329%" y1="88.8217523%" x2="97.7068964%" y2="-102.517623%" id="linearGradient-2">
            <stop stop-color="#E0E0E0" offset="0%"></stop>
            <stop stop-color="#FFFFFF" offset="52%"></stop>
            <stop stop-color="#E0E0E0" offset="100%"></stop>
        </linearGradient>
        <linearGradient x1="68.8828584%" y1="51.8016901%" x2="4.31931253%" y2="44.1955859%" id="linearGradient-3">
            <stop stop-color="#E0E0E0" offset="0%"></stop>
            <stop stop-color="#FFFFFF" offset="52%"></stop>
            <stop stop-color="#E0E0E0" offset="100%"></stop>
        </linearGradient>
        <linearGradient x1="68.6230248%" y1="26.3411675%" x2="-92.7765237%" y2="231.364265%" id="linearGradient-4">
            <stop stop-color="#E0E0E0" offset="0%"></stop>
            <stop stop-color="#FFFFFF" offset="21%"></stop>
            <stop stop-color="#E0E0E0" offset="100%"></stop>
        </linearGradient>
    </defs>
    <g id="Page-1" stroke="none" stroke-width="1" fill="none" fill-rule="evenodd">
        <g id="Artboard" transform="translate(-75.000000, -19.000000)" fill-rule="nonzero">
            <g id="logo-white" transform="translate(75.000000, 19.000000)">
                <g id="Asset-2" transform="translate(0.000000, 5.000000)">
                    <polygon id="Path" fill="url(#linearGradient-1)" points="22.82 0 22.8 0.03 22.8 13 29.43 23.67 45.05 35.28"></polygon>
                    <polygon id="Path" fill="url(#linearGradient-2)" points="11.33 17.02 18.03 19.89 22.8 13 22.8 0.03"></polygon>
                    <polygon id="Path" fill="url(#linearGradient-3)" points="45.05 35.29 45.05 35.28 29.43 23.67 29.43 23.68 17.61 20.49 17.62 20.48 10.3 18.5 10.29 18.52 5.15 17.13 0.83 23.36"></polygon>
                    <polygon id="Path" fill="url(#linearGradient-4)" points="13.29 26.72 5.97 24.74 0 33.42 7.32 35.4"></polygon>
                </g>
            </g>
        </g>
    </g>
</svg>