<svg className="h-16 w-16" xmlns="http://www.w3.org/2000/svg" xmlns:xlink="http://www.w3.org/1999/xlink" viewBox="0 0 46 46"><defs><linearGradient id="linear-gradient-footer" x1="41.53" y1="40.29" x2="25.37" y2="15.31" gradientUnits="userSpaceOnUse"><stop offset="0" stop-color="#e0e0e0"></stop><stop offset="0.52" stop-color="#fff"></stop><stop offset="1" stop-color="#e0e0e0"></stop></linearGradient><linearGradient id="linear-gradient-2-footer" x1="16.5" y1="23.33" x2="34.13" y2="-14.66" xlink:href="#linear-gradient-footer"></linearGradient><linearGradient id="linear-gradient-3-footer" x1="31.95" y1="33.82" x2="3.4" y2="25.63" gradientUnits="userSpaceOnUse"><stop offset="0" stop-color="#e0e0e0"></stop><stop offset="0.52" stop-color="#fff"></stop><stop offset="1" stop-color="#e0e0e0"></stop></linearGradient><linearGradient id="linear-gradient-4-footer" x1="9.78" y1="31.82" x2="-11.67" y2="65.79" gradientUnits="userSpaceOnUse"><stop offset="0" stop-color="#e0e0e0"></stop><stop offset="0.21" stop-color="#fff"></stop><stop offset="1" stop-color="#e0e0e0"></stop></linearGradient></defs><title>Artboard 1 copy 4</title><polygon class="cls-1-footer" points="23.48 5.67 23.47 5.69 23.47 18.67 30.09 29.34 45.71 40.95 23.48 5.67"></polygon><polygon class="cls-2-footer" points="11.99 22.68 18.69 25.55 23.47 18.67 23.47 5.69 11.99 22.68"></polygon><polygon class="cls-3-footer" points="45.71 40.96 45.71 40.95 30.09 29.34 30.1 29.35 18.27 26.16 18.28 26.15 10.96 24.17 10.95 24.18 5.81 22.79 1.49 29.03 45.71 40.96"></polygon><polygon class="cls-4-footer" points="13.95 32.39 6.63 30.41 0.66 39.09 7.98 41.06 13.95 32.39"></polygon></svg>
