<?xml version="1.0" standalone="no"?>
<!DOCTYPE svg PUBLIC "-//W3C//DTD SVG 20010904//EN"
 "http://www.w3.org/TR/2001/REC-SVG-20010904/DTD/svg10.dtd">
<svg version="1.0" xmlns="http://www.w3.org/2000/svg"
 width="700.000000pt" height="700.000000pt" viewBox="0 0 700.000000 700.000000"
 preserveAspectRatio="xMidYMid meet">
<metadata>
Created by potrace 1.11, written by Peter Selinger 2001-2013
</metadata>
<g transform="translate(0.000000,700.000000) scale(0.100000,-0.100000)"
fill="#000000" stroke="none">
<path d="M3403 6137 c-34 -50 -154 -229 -267 -397 -114 -168 -286 -423 -384
-568 -97 -144 -245 -362 -327 -485 -83 -122 -258 -382 -389 -577 -132 -195
-255 -376 -273 -402 -18 -26 -33 -51 -33 -55 0 -5 53 -30 118 -57 64 -27 135
-57 157 -67 85 -38 720 -310 729 -312 8 -2 245 332 570 805 77 112 146 211
154 220 13 16 21 7 85 -100 39 -64 74 -118 79 -120 4 -2 8 -7 8 -12 0 -4 124
-207 276 -451 153 -244 290 -466 306 -494 16 -27 40 -66 53 -85 38 -59 146
-233 167 -270 11 -19 24 -39 29 -45 15 -15 10 -27 -8 -22 -10 3 -106 29 -213
57 -107 28 -226 61 -264 72 -38 11 -76 21 -85 23 -17 3 -334 89 -391 105 -32
10 -169 47 -485 131 -60 16 -159 43 -220 59 -60 17 -117 32 -125 34 -8 2 -55
16 -105 30 -143 40 -782 212 -948 255 -140 37 -234 61 -532 142 -254 69 -290
79 -297 79 -5 0 -133 -181 -443 -630 -32 -47 -94 -136 -138 -198 -43 -63 -77
-115 -75 -117 2 -2 231 -66 288 -80 8 -2 85 -23 170 -46 85 -23 192 -51 236
-63 l81 -22 -113 -164 c-62 -91 -156 -228 -208 -305 -53 -77 -127 -184 -164
-237 -37 -54 -94 -137 -127 -185 -33 -49 -110 -160 -170 -248 -61 -88 -114
-165 -118 -171 -4 -7 38 -23 116 -44 67 -18 201 -54 297 -80 96 -26 263 -71
370 -100 107 -29 223 -60 258 -70 l63 -18 30 41 c17 23 164 236 326 472 571
831 553 805 566 805 7 0 35 -7 62 -15 54 -17 559 -154 587 -160 9 -2 50 -13
90 -24 40 -11 100 -27 133 -36 33 -9 83 -22 110 -30 28 -8 167 -45 310 -84
143 -38 343 -92 445 -120 610 -164 824 -222 895 -241 77 -21 171 -46 390 -105
85 -23 551 -149 850 -230 50 -14 142 -38 205 -55 63 -17 165 -44 225 -60 61
-16 200 -54 310 -84 110 -30 201 -53 203 -52 1 2 -13 27 -33 57 -19 30 -38 62
-41 71 -3 10 -10 18 -15 18 -5 0 -9 4 -9 9 0 5 -48 85 -106 178 -59 92 -190
301 -292 463 -102 162 -202 320 -222 350 -20 31 -39 62 -43 70 -4 8 -24 41
-45 73 -45 70 -509 804 -537 851 -11 18 -130 207 -265 420 -135 212 -252 399
-261 414 -9 15 -87 140 -174 277 -87 138 -230 365 -318 505 -88 140 -176 280
-197 310 -20 31 -39 62 -43 70 -4 8 -35 59 -69 113 -35 53 -119 186 -187 295
-69 108 -143 226 -166 262 -23 36 -93 146 -155 245 -166 266 -192 305 -199
305 -3 0 -34 -42 -68 -93z m2848 -4814 c13 -16 12 -17 -3 -4 -10 7 -18 15 -18
17 0 8 8 3 21 -13z"/>
</g>
</svg>
